<?xml version="1.0" encoding="UTF-8" standalone="no"?>
<!-- Created with Inkscape (http://www.inkscape.org/) -->

<svg
   xmlns:dc="http://purl.org/dc/elements/1.1/"
   xmlns:cc="http://creativecommons.org/ns#"
   xmlns:rdf="http://www.w3.org/1999/02/22-rdf-syntax-ns#"
   xmlns:svg="http://www.w3.org/2000/svg"
   xmlns="http://www.w3.org/2000/svg"
   xmlns:sodipodi="http://sodipodi.sourceforge.net/DTD/sodipodi-0.dtd"
   xmlns:inkscape="http://www.inkscape.org/namespaces/inkscape"
   width="64"
   height="64"
   viewBox="0 0 16.933333 16.933333"
   version="1.1"
   id="svg8"
   inkscape:version="0.92.2 (5c3e80d, 2017-08-06)"
   sodipodi:docname="rosette.svg">
  <defs
     id="defs2" />
  <sodipodi:namedview
     id="base"
     pagecolor="#ffffff"
     bordercolor="#666666"
     borderopacity="1.0"
     inkscape:pageopacity="0.0"
     inkscape:pageshadow="2"
     inkscape:zoom="5.6"
     inkscape:cx="28.612652"
     inkscape:cy="24.789345"
     inkscape:document-units="mm"
     inkscape:current-layer="layer1"
     showgrid="false"
     units="px"
     inkscape:window-width="1920"
     inkscape:window-height="1016"
     inkscape:window-x="0"
     inkscape:window-y="27"
     inkscape:window-maximized="1" />
  <metadata
     id="metadata5">
    <rdf:RDF>
      <cc:Work
         rdf:about="">
        <dc:format>image/svg+xml</dc:format>
        <dc:type
           rdf:resource="http://purl.org/dc/dcmitype/StillImage" />
        <dc:title></dc:title>
      </cc:Work>
    </rdf:RDF>
  </metadata>
  <g
     inkscape:label="Calque 1"
     inkscape:groupmode="layer"
     id="layer1"
     transform="translate(0,-280.06667)">
    <g
       id="g853"
       transform="matrix(0.98906204,0,0,0.98906204,0.55127977,3.220994)">
      <path
         sodipodi:nodetypes="zzzzzzzzzzzzzz"
         inkscape:connector-curvature="0"
         id="path4544"
         d="m 2.2350202,284.51137 c 0.5995606,-0.98312 2.0839624,-2.02835 3.3689441,-2.64612 1.2849817,-0.61777 2.8419684,-1.20561 3.9371392,-1.34739 1.0951705,-0.14178 1.8716265,-0.40212 2.4974395,0.36236 0.625813,0.76448 0.396804,1.65415 0.781199,2.88533 0.384395,1.23118 1.586074,2.9002 1.667688,4.43169 0.08161,1.53149 0.16706,3.14884 0.128884,4.35286 -0.03818,1.20402 -0.894472,1.66274 -1.65636,2.20531 -0.761888,0.54257 -0.601058,1.26395 -2.423437,1.52393 -1.8223793,0.25998 -6.3568392,0.45657 -8.1809262,0.0952 -1.82408696,-0.36137 -0.5672577,-2.34581 -0.3690174,-2.63277 0.1982403,-0.28696 0.040356,-3.55169 0.07965,-3.99843 0.039294,-0.44674 0.1927198,-1.71387 0.1353324,-2.60544 -0.057387,-0.89157 -0.5660962,-1.64341 0.033464,-2.62653 z"
         style="fill:#ffb380;fill-opacity:1;fill-rule:evenodd;stroke:#ff6600;stroke-width:0.442;stroke-linecap:butt;stroke-linejoin:miter;stroke-miterlimit:4;stroke-dasharray:none;stroke-opacity:1" />
      <path
         style="fill:#ff6600;stroke-width:0.15479101"
         id="path2"
         d="m 8.6065131,282.18727 c 0.8368625,-0.0447 1.5847439,0.53631 1.6851649,1.42734 0.09156,0.81223 -0.116414,1.25473 -0.7812097,1.66128 v -3.5e-4 c -0.2712557,0.16601 -0.5858955,0.26677 -0.6992803,0.22406 -0.1133843,-0.0429 -0.33868,-0.0778 -0.5006522,-0.0778 -0.161974,0 -0.5073712,-0.19147 -0.7676054,-0.42556 -0.3966289,-0.35685 -0.4752056,-0.54519 -0.4864427,-1.16551 -0.014907,-0.82313 0.2281943,-1.20377 0.9635126,-1.50831 0.1957391,-0.0812 0.3933902,-0.12473 0.5865128,-0.13517 z m 0.015726,0.29693 c -0.3133363,0 -0.6110016,0.0507 -0.6110016,0.15144 0,0.0858 0.3174898,0.15479 0.7056278,0.15479 0.4310463,0 0.6685283,-0.0601 0.6100943,-0.15479 -0.06238,-0.1009 -0.3913851,-0.15144 -0.7047205,-0.15144 z m -3.1e-4,0.61757 c -0.6227626,0 -1.229862,0.0512 -1.229862,0.15306 0,0.0918 0.5447383,0.15479 1.324792,0.15479 0.8438282,0 1.2901899,-0.0564 1.2292582,-0.15479 -0.063,-0.10202 -0.7014257,-0.15306 -1.3241882,-0.15306 z m 0.00855,0.61742 c -0.7662149,0 -1.3931181,0.0643 -1.3931181,0.14386 0,0.0795 0.6270041,0.16623 1.3934201,0.19351 1.0382132,0.0369 1.3934279,2e-4 1.3931179,-0.14387 -3.1e-4,-0.14048 -0.3823097,-0.1935 -1.3934199,-0.1935 z m 0,0.61909 c -0.7223623,0 -1.2383275,0.0641 -1.2383275,0.15482 0,0.0858 0.017415,0.15942 0.038694,0.16473 0.3536974,0.0907 2.2464967,0.12986 2.3273077,0.0488 0.2824767,-0.28236 0.01904,-0.36851 -1.1276779,-0.36851 z m -0.00915,0.61926 c -0.3794521,0 -0.5904756,0.0612 -0.5326995,0.15475 0.1247149,0.2018 1.160932,0.2018 1.160932,0 0,-0.0858 -0.282662,-0.15475 -0.6282325,-0.15475 z m -2.9301461,1.25898 c 0.106165,-0.0113 0.201515,0.0909 0.314721,0.30184 0.164079,0.30664 0.182294,0.30872 0.3754893,0.0442 0.1772981,-0.24252 0.2367647,-0.24985 0.4670946,-0.0585 0.2304827,0.1913 0.2834729,0.1841 0.4178143,-0.0564 0.1469584,-0.26259 0.1679525,-0.26226 0.4719317,0.009 0.2310717,0.20495 0.3366187,0.22908 0.3857682,0.0889 0.08758,-0.25038 0.46142,-0.25038 0.5456983,0 0.05077,0.15099 0.1219422,0.14699 0.3225822,-0.0181 0.212497,-0.17546 0.299796,-0.17735 0.5012557,-0.01 0.202219,0.16771 0.267544,0.16423 0.382141,-0.0196 0.106263,-0.17073 0.2023567,-0.18271 0.4147907,-0.0513 0.199062,0.12323 0.35096,0.12434 0.542374,0.004 0.303591,-0.19138 0.492569,-0.0524 0.654234,0.48323 0.125519,0.41548 -0.03467,0.45484 -0.314722,0.0766 -0.190749,-0.25701 -0.211616,-0.25606 -0.412071,0.0139 -0.193287,0.26068 -0.22853,0.26401 -0.418722,0.0353 -0.190191,-0.22929 -0.230471,-0.22954 -0.4809997,-0.004 -0.251334,0.2275 -0.287111,0.22466 -0.4423037,-0.0353 -0.162547,-0.27163 -0.174809,-0.27174 -0.335884,-0.004 -0.129174,0.21589 -0.215829,0.2391 -0.3797214,0.10304 -0.1167433,-0.0967 -0.3581864,-0.12976 -0.5366291,-0.074 -0.1784431,0.0568 -0.4198844,0.024 -0.5366293,-0.0729 -0.1639077,-0.13615 -0.2503362,-0.11247 -0.3794186,0.10331 -0.1594509,0.26667 -0.1783335,0.26522 -0.4057221,-0.0298 -0.2043546,-0.26468 -0.259052,-0.27569 -0.3824415,-0.077 -0.1200426,0.19307 -0.1969946,0.19856 -0.4640706,0.0333 -0.2696,-0.16717 -0.36121,-0.15797 -0.578351,0.0591 -0.356282,0.35635 -0.433033,0.0242 -0.108837,-0.4704 0.157484,-0.24031 0.274463,-0.36481 0.380628,-0.37606 z m 1.5149576,1.94533 c 0.2965103,0.0142 0.654974,0.16524 1.0889769,0.45079 0.028376,0.0183 -0.093525,0.17903 -0.2708842,0.35642 -0.1773592,0.1775 -0.3225818,0.47247 -0.3225818,0.65545 0,0.18314 -0.3134513,0.97738 -0.6965585,1.765 -0.779079,1.6018 -0.799705,1.72395 -0.4447226,2.65349 0.2592284,0.67895 0.4684327,0.78455 1.5844915,0.79969 0.3770364,0.006 0.5925533,0.12083 0.4640714,0.24945 -0.040089,0.0402 -0.8171012,0.0881 -1.7262837,0.10547 -0.9091796,0.0174 -1.7410866,0.0875 -1.8487226,0.15418 h -3.1e-4 c -0.365918,0.22746 -0.316893,-0.2209 0.05503,-0.5034 0.319451,-0.24272 0.342686,-0.32236 0.175048,-0.59471 -0.106419,-0.17289 -0.19349,-0.48087 -0.19349,-0.68474 0,-0.30939 -0.113407,-0.39937 -0.687186,-0.54388 -0.843518,-0.21236 -0.980946,-0.40579 -0.597699,-0.84251 0.162557,-0.18527 0.477646,-0.61544 0.69988,-0.956 0.222233,-0.34053 0.671192,-0.905 0.997678,-1.25465 0.326484,-0.34955 0.711773,-0.88459 0.856489,-1.18877 0.2063552,-0.43373 0.4855404,-0.64004 0.8667695,-0.62128 z m 4.0974234,0.0633 c 0.157947,-8e-4 0.267862,0.034 0.267862,0.11705 0,0.0961 -0.235377,0.17503 -0.523025,0.17503 -0.724148,0 -0.894746,0.47437 -0.837746,2.33026 l 0.04505,1.46206 0.773955,-0.0455 c 0.529307,-0.0322 0.704867,6e-4 0.555675,0.10182 -0.119979,0.0819 -0.294122,0.12084 -0.386978,0.0881 -0.213518,-0.0757 -0.97278,0.49759 -0.837442,0.63297 0.05529,0.0555 0.241004,0.0252 0.412978,-0.0664 0.392596,-0.2101 0.952326,-0.2176 0.952326,-0.0129 0,0.0857 -0.174139,0.15483 -0.386977,0.15483 -0.615573,0 -1.006142,0.51063 -1.006142,1.31562 v 3.1e-4 c 0,0.38306 -0.06965,0.69648 -0.15479,0.69648 -0.08513,0 -0.154791,-0.28161 -0.154791,-0.62602 0,-0.70121 -0.5275247,-1.38614 -1.0675124,-1.38614 -0.1691247,0 -0.3503853,-0.0692 -0.4030016,-0.15481 -0.1540787,-0.24936 0.5940566,-0.17845 0.9816523,0.0935 0.462424,0.32381 0.5713637,0.19772 0.212233,-0.24582 -0.156385,-0.19303 -0.5587157,-0.40967 -0.8939777,-0.48125 -0.5329147,-0.11389 -0.4975606,-0.12238 0.280558,-0.0685 l 0.8900484,0.0616 v -1.73963 c 0,-1.14962 0.06588,-1.82913 0.194093,-2.00441 0.158042,-0.2161 0.738471,-0.39324 1.085955,-0.39575 z m -4.0006795,0.21435 c -0.3528458,-0.01 -0.6782912,0.23073 -0.77335,0.60953 -0.050772,0.20222 -0.2605475,0.52568 -0.4661875,0.71889 -0.431827,0.40564 -0.476881,0.68902 -0.130908,0.82168 0.161408,0.0617 0.209674,0.19743 0.14421,0.4036 -0.133384,0.42028 0.01705,0.39139 0.3129077,-0.0602 0.1638732,-0.25012 0.2070499,-0.51439 0.1327213,-0.81266 -0.1011822,-0.4061 -0.088368,-0.42402 0.1584194,-0.22068 0.1477948,0.1218 0.2355137,0.3481 0.1949993,0.50304 -0.040518,0.15494 -0.013094,0.28152 0.06107,0.28152 0.2263975,0 0.4553042,-0.56891 0.4553042,-1.13164 0,-0.29802 0.1083439,-0.62298 0.2457909,-0.73706 0.2206434,-0.18311 0.2115808,-0.21661 -0.088889,-0.32776 -0.081859,-0.0308 -0.1646673,-0.0454 -0.2460927,-0.0481 z m -1.7610495,2.26775 c -0.180938,-0.01 -0.475597,0.23219 -0.796329,0.70355 -0.278469,0.4091 -0.579912,0.79346 -0.669954,0.85372 -0.114708,0.0765 -0.113584,0.15977 0.0034,0.27664 0.273727,0.27334 1.193118,0.33209 1.593564,0.10186 0.340913,-0.19598 1.098019,-1.25549 1.0998604,-1.53909 4.649e-4,-0.0668 -0.1516774,0.0195 -0.338,0.19341 -0.4845724,0.45153 -0.7777254,0.4078 -0.7171174,-0.107 0.03749,-0.31838 -0.03462,-0.47625 -0.175348,-0.48309 z m 0.259999,2.30039 c -0.06595,-5.3e-4 -0.192918,0.18985 -0.281768,0.42355 -0.123868,0.32584 -0.105309,0.54246 0.07891,0.92871 0.227883,0.47797 0.59687,0.65704 0.7715357,0.37437 0.1030129,-0.16676 -0.4100767,-1.72464 -0.5686777,-1.72663 z"
         inkscape:connector-curvature="0" />
    </g>
  </g>
</svg>
